<svg width="240" height="240" viewBox="0 0 240 240" fill="none" xmlns="http://www.w3.org/2000/svg">
<rect width="240" height="240" fill="white"/>
<circle cx="120" cy="120" r="120" fill="#56CCF2"/>
<circle cx="119.5" cy="120.5" r="86.5" fill="white"/>
<path fill-rule="evenodd" clip-rule="evenodd" d="M95.4475 78.7269L79.8417 91.7402C77.7067 93.5194 74.5042 93.2652 72.725 91.0793C70.895 88.9444 71.2 85.7419 73.335 83.9119L88.9917 70.8985C91.1267 69.1194 94.3292 69.3735 96.1084 71.5594C97.9384 73.6944 97.6334 76.8969 95.4475 78.7269ZM166.665 83.9119L151.009 70.8985C148.874 69.1194 145.671 69.3735 143.841 71.5594C142.062 73.6944 142.367 76.8969 144.502 78.7269L160.108 91.7402C162.243 93.5194 165.445 93.2652 167.275 91.0793C169.105 88.9444 168.8 85.7419 166.665 83.9119ZM139.672 135.965L122.542 125.798V102.771C122.542 100.738 120.915 99.1109 118.882 99.1109H118.577C116.543 99.1109 114.917 100.738 114.917 102.771V126.764C114.917 128.543 115.832 130.221 117.407 131.136L135.962 142.268C137.69 143.285 139.927 142.777 140.943 141.048C142.011 139.269 141.452 136.982 139.672 135.965ZM120 78.7776C94.7358 78.7776 74.25 99.2634 74.25 124.528C74.25 149.792 94.7358 170.278 120 170.278C145.264 170.278 165.75 149.792 165.75 124.528C165.75 99.2634 145.264 78.7776 120 78.7776ZM84.4166 124.528C84.4166 144.149 100.378 160.111 120 160.111C139.622 160.111 155.583 144.149 155.583 124.528C155.583 104.906 139.622 88.9443 120 88.9443C100.378 88.9443 84.4166 104.906 84.4166 124.528Z" fill="#828282"/>
</svg>
