<?xml version="1.0" encoding="UTF-8" standalone="no"?>
<svg
   xmlns:dc="http://purl.org/dc/elements/1.1/"
   xmlns:cc="http://creativecommons.org/ns#"
   xmlns:rdf="http://www.w3.org/1999/02/22-rdf-syntax-ns#"
   xmlns:svg="http://www.w3.org/2000/svg"
   xmlns="http://www.w3.org/2000/svg"
   viewBox="0 0 666.66669 666.66669"
   height="666.66669"
   width="666.66669"
   xml:space="preserve"
   id="svg2"
   version="1.1"><metadata
     id="metadata8"><rdf:RDF><cc:Work
         rdf:about=""><dc:format>image/svg+xml</dc:format><dc:type
           rdf:resource="http://purl.org/dc/dcmitype/StillImage" /></cc:Work></rdf:RDF></metadata><defs
     id="defs6"><clipPath
       id="clipPath32"
       clipPathUnits="userSpaceOnUse"><path
         id="path30"
         d="M 0,500 H 500 V 0 H 0 Z" /></clipPath><clipPath
       id="clipPath92"
       clipPathUnits="userSpaceOnUse"><path
         id="path90"
         d="M 0,500 H 500 V 0 H 0 Z" /></clipPath><clipPath
       id="clipPath104"
       clipPathUnits="userSpaceOnUse"><path
         id="path102"
         d="M 97.3596,414.646 H 421.693 V 128.995 H 97.3596 Z" /></clipPath><clipPath
       id="clipPath120"
       clipPathUnits="userSpaceOnUse"><path
         id="path118"
         d="M 0,500 H 500 V 0 H 0 Z" /></clipPath><clipPath
       id="clipPath132"
       clipPathUnits="userSpaceOnUse"><path
         id="path130"
         d="m 251.11,380.316 h 77.839 V 322.507 H 251.11 Z" /></clipPath><clipPath
       id="clipPath148"
       clipPathUnits="userSpaceOnUse"><path
         id="path146"
         d="m 260.746,360.366 h 19.817 v -7.329 h -19.817 z" /></clipPath><clipPath
       id="clipPath164"
       clipPathUnits="userSpaceOnUse"><path
         id="path162"
         d="m 298.882,353.523 h 19.853 v -5.069 h -19.853 z" /></clipPath><clipPath
       id="clipPath180"
       clipPathUnits="userSpaceOnUse"><path
         id="path178"
         d="m 297.431,343.374 h 14.727 v -7.375 h -14.727 z" /></clipPath><clipPath
       id="clipPath200"
       clipPathUnits="userSpaceOnUse"><path
         id="path198"
         d="M 217.503,308.553 H 410.964 V 145.645 H 217.503 Z" /></clipPath><clipPath
       id="clipPath216"
       clipPathUnits="userSpaceOnUse"><path
         id="path214"
         d="m 280.66,281.325 h 90.591 V 215.444 H 280.66 Z" /></clipPath><clipPath
       id="clipPath232"
       clipPathUnits="userSpaceOnUse"><path
         id="path230"
         d="M 277.458,217.097 H 400.786 V 185.052 H 277.458 Z" /></clipPath><clipPath
       id="clipPath268"
       clipPathUnits="userSpaceOnUse"><path
         id="path266"
         d="M 252.984,308.133 H 266.32 V 293.479 H 252.984 Z" /></clipPath><clipPath
       id="clipPath292"
       clipPathUnits="userSpaceOnUse"><path
         id="path290"
         d="m 186.91,148.253 h 8.404 v -7.234 h -8.404 z" /></clipPath><clipPath
       id="clipPath316"
       clipPathUnits="userSpaceOnUse"><path
         id="path314"
         d="m 234.944,127.805 h 7.956 v -5.823 h -7.956 z" /></clipPath><clipPath
       id="clipPath336"
       clipPathUnits="userSpaceOnUse"><path
         id="path334"
         d="m 297.444,302.827 h 4.589 v -15.465 h -4.589 z" /></clipPath><clipPath
       id="clipPath360"
       clipPathUnits="userSpaceOnUse"><path
         id="path358"
         d="m 273.222,305.722 h 1.409 v -1.655 h -1.409 z" /></clipPath><clipPath
       id="clipPath376"
       clipPathUnits="userSpaceOnUse"><path
         id="path374"
         d="m 271.454,302.47 h 1.362 v -1.693 h -1.362 z" /></clipPath><clipPath
       id="clipPath392"
       clipPathUnits="userSpaceOnUse"><path
         id="path390"
         d="m 269.945,298.935 h 1.272 v -1.762 h -1.272 z" /></clipPath><clipPath
       id="clipPath408"
       clipPathUnits="userSpaceOnUse"><path
         id="path406"
         d="m 271.585,306.889 h 5.973 V 294.75 h -5.973 z" /></clipPath><clipPath
       id="clipPath424"
       clipPathUnits="userSpaceOnUse"><path
         id="path422"
         d="m 281.714,333.919 h 6.98 v -7.447 h -6.98 z" /></clipPath><clipPath
       id="clipPath456"
       clipPathUnits="userSpaceOnUse"><path
         id="path454"
         d="m 227.498,238.633 h 24.383 v -20.621 h -24.383 z" /></clipPath><clipPath
       id="clipPath532"
       clipPathUnits="userSpaceOnUse"><path
         id="path530"
         d="m 136.474,224.018 h 83.586 v -90.17 h -83.586 z" /></clipPath><clipPath
       id="clipPath548"
       clipPathUnits="userSpaceOnUse"><path
         id="path546"
         d="m 145.877,177.231 h 66.418 v -16.415 h -66.418 z" /></clipPath><clipPath
       id="clipPath564"
       clipPathUnits="userSpaceOnUse"><path
         id="path562"
         d="M 0,500 H 500 V 0 H 0 Z" /></clipPath><clipPath
       id="clipPath576"
       clipPathUnits="userSpaceOnUse"><path
         id="path574"
         d="M 87.8496,401.675 H 185.099 V 264.322 H 87.8496 Z" /></clipPath><clipPath
       id="clipPath592"
       clipPathUnits="userSpaceOnUse"><path
         id="path590"
         d="M 91.5999,397.925 H 181.349 V 268.072 H 91.5999 Z" /></clipPath><clipPath
       id="clipPath624"
       clipPathUnits="userSpaceOnUse"><path
         id="path622"
         d="m 113.162,387.311 h 39.542 v -24.07 h -39.542 z" /></clipPath><clipPath
       id="clipPath648"
       clipPathUnits="userSpaceOnUse"><path
         id="path646"
         d="m 104.564,325.443 h 24.07 v -39.284 h -24.07 z" /></clipPath><clipPath
       id="clipPath672"
       clipPathUnits="userSpaceOnUse"><path
         id="path670"
         d="m 172.506,317.125 h 2.445 v -36.472 h -2.445 z" /></clipPath></defs><g
     transform="matrix(1.3333333,0,0,-1.3333333,0,666.66667)"
     id="g10"><path
       id="path12"
       style="fill:#ececec;fill-opacity:1;fill-rule:nonzero;stroke:none"
       d="M 0.196,110.352 H 500 v 0.25 H 0.196 Z" /><path
       id="path14"
       style="fill:#ececec;fill-opacity:1;fill-rule:nonzero;stroke:none"
       d="m 52.655,103.541 h 37.041 v 0.25 H 52.655 Z" /><path
       id="path16"
       style="fill:#ececec;fill-opacity:1;fill-rule:nonzero;stroke:none"
       d="m 169.196,33.111 h 71 v 0.25 h -71 z" /><path
       id="path18"
       style="fill:#ececec;fill-opacity:1;fill-rule:nonzero;stroke:none"
       d="m 95.112,89.306 h 50.751 v 0.249 H 95.112 Z" /><path
       id="path20"
       style="fill:#ececec;fill-opacity:1;fill-rule:nonzero;stroke:none"
       d="m 406.975,63.334 h 48.667 v 0.249 h -48.667 z" /><path
       id="path22"
       style="fill:#ececec;fill-opacity:1;fill-rule:nonzero;stroke:none"
       d="m 370.557,63.334 h 31.971 v 0.249 h -31.971 z" /><path
       id="path24"
       style="fill:#ececec;fill-opacity:1;fill-rule:nonzero;stroke:none"
       d="m 277.41,80.222 h 62.009 v 0.25 H 277.41 Z" /><g
       id="g26"><g
         clip-path="url(#clipPath32)"
         id="g28"><g
           transform="translate(44.1115,437.7974)"
           id="g34"><path
             id="path36"
             style="fill:#ececec;fill-opacity:1;fill-rule:nonzero;stroke:none"
             d="m 0,0 c -3.01,0 -5.458,-2.448 -5.458,-5.458 v -271.431 c 0,-3.01 2.448,-5.458 5.458,-5.458 h 193.099 c 3.008,0 5.457,2.448 5.457,5.458 V -5.458 c 0,3.01 -2.449,5.458 -5.457,5.458 z M 193.099,-282.597 H 0 c -3.147,0 -5.708,2.56 -5.708,5.708 V -5.458 c 0,3.147 2.561,5.708 5.708,5.708 h 193.099 c 3.146,0 5.707,-2.561 5.707,-5.708 v -271.431 c 0,-3.148 -2.561,-5.708 -5.707,-5.708" /></g><g
           transform="translate(260.4084,437.7974)"
           id="g38"><path
             id="path40"
             style="fill:#ececec;fill-opacity:1;fill-rule:nonzero;stroke:none"
             d="m 0,0 c -3.009,0 -5.457,-2.448 -5.457,-5.458 v -271.431 c 0,-3.01 2.448,-5.458 5.457,-5.458 h 193.099 c 3.009,0 5.458,2.448 5.458,5.458 V -5.458 c 0,3.01 -2.449,5.458 -5.458,5.458 z M 193.099,-282.597 H 0 c -3.146,0 -5.707,2.56 -5.707,5.708 V -5.458 c 0,3.147 2.561,5.708 5.707,5.708 h 193.099 c 3.147,0 5.708,-2.561 5.708,-5.708 v -271.431 c 0,-3.148 -2.561,-5.708 -5.708,-5.708" /></g><g
           transform="translate(440.7629,214.188)"
           id="g42"><path
             id="path44"
             style="fill:#ececec;fill-opacity:1;fill-rule:nonzero;stroke:none"
             d="m 0,0 h -113.559 c -3.572,0 -6.495,2.922 -6.495,6.494 v 132.888 c 0,3.572 2.923,6.494 6.495,6.494 H 0 c 3.572,0 6.494,-2.922 6.494,-6.494 V 6.494 C 6.494,2.922 3.572,0 0,0" /></g><g
           transform="translate(327.2034,359.0645)"
           id="g46"><path
             id="path48"
             style="fill:#f5f5f5;fill-opacity:1;fill-rule:nonzero;stroke:none"
             d="m 0,0 c -3.029,0 -5.494,-2.465 -5.494,-5.494 v -132.888 c 0,-3.03 2.465,-5.494 5.494,-5.494 h 113.559 c 3.03,0 5.495,2.464 5.495,5.494 V -5.494 c 0,3.029 -2.465,5.494 -5.495,5.494 z M 113.559,-145.876 H 0 c -4.132,0 -7.494,3.361 -7.494,7.494 V -5.494 C -7.494,-1.362 -4.132,2 0,2 h 113.559 c 4.133,0 7.495,-3.362 7.495,-7.494 v -132.888 c 0,-4.133 -3.362,-7.494 -7.495,-7.494" /></g><g
           transform="translate(85.4886,180.8179)"
           id="g50"><path
             id="path52"
             style="fill:#e7e7e7;fill-opacity:1;fill-rule:nonzero;stroke:none"
             d="m 0,0 13.46,5.147 c 0.97,0.372 1.46,1.469 1.089,2.439 L 3.277,37.061 c -0.371,0.97 -1.468,1.46 -2.439,1.089 l -13.459,-5.148 c -0.971,-0.371 -1.461,-1.468 -1.09,-2.439 L -2.439,1.09 C -2.068,0.119 -0.97,-0.371 0,0" /></g><g
           transform="translate(92.5153,180.5127)"
           id="g54"><path
             id="path56"
             style="fill:#e7e7e7;fill-opacity:1;fill-rule:nonzero;stroke:none"
             d="M 0,0 1.403,0.537 C 1.909,0.73 2.164,1.302 1.971,1.808 L 0.501,5.651 C 0.307,6.157 -0.264,6.413 -0.77,6.219 L -2.173,5.683 C -2.679,5.489 -2.934,4.917 -2.741,4.412 l 1.47,-3.844 C -1.077,0.062 -0.506,-0.193 0,0" /></g><g
           transform="translate(84.9202,181.7002)"
           id="g58"><path
             id="path60"
             style="fill:#f0f0f0;fill-opacity:1;fill-rule:nonzero;stroke:none"
             d="m 0,0 c 0.072,0.008 0.143,0.025 0.211,0.052 l 13.46,5.147 c 0.458,0.176 0.688,0.69 0.513,1.148 L 2.912,35.821 C 2.768,36.195 2.375,36.433 1.975,36.386 1.903,36.377 1.833,36.36 1.764,36.333 l -13.46,-5.147 c -0.458,-0.175 -0.687,-0.69 -0.513,-1.148 L -0.937,0.565 C -0.793,0.19 -0.4,-0.047 0,0" /></g><g
           transform="translate(99.5205,223.0156)"
           id="g62"><path
             id="path64"
             style="fill:#e7e7e7;fill-opacity:1;fill-rule:nonzero;stroke:none"
             d="m 0,0 c -23.155,7.838 -47.099,15.944 -40.746,47.667 4.576,22.851 -8.421,42.307 -22.972,49.012 -12.881,5.937 -26.262,2.289 -35.803,-9.637 v -1.643 c 9.473,12.748 22.951,16.101 35.384,10.372 14.204,-6.545 26.887,-25.56 22.411,-47.907 -6.526,-32.586 18.939,-41.206 41.405,-48.811 16.977,-5.747 33.013,-11.176 33.27,-25.987 0.202,-11.666 -6.097,-20.068 -16.851,-22.475 -9.531,-2.131 -19.313,1.347 -22.273,7.922 l -0.912,-0.41 c 2.531,-5.623 9.672,-9.134 17.56,-9.134 1.922,0 3.888,0.209 5.843,0.646 11.252,2.518 17.844,11.292 17.633,23.468 C 33.68,-11.401 17.32,-5.863 0,0" /></g><g
           transform="translate(381.3732,121.5391)"
           id="g66"><path
             id="path68"
             style="fill:#f5f5f5;fill-opacity:1;fill-rule:nonzero;stroke:none"
             d="m 0,0 h -207.425 c -6.869,0 -12.49,5.62 -12.49,12.49 v 268.814 c 0,6.87 5.621,12.49 12.49,12.49 H 0 c 6.869,0 12.49,-5.62 12.49,-12.49 V 12.49 C 12.49,5.62 6.869,0 0,0" /></g><g
           transform="translate(423.2769,324.7285)"
           id="g70"><path
             id="path72"
             style="fill:#e1e1e1;fill-opacity:1;fill-rule:nonzero;stroke:none"
             d="m 0,0 c -11.77,-5.825 -25.401,-14.934 -18.581,-22.706 6.82,-7.772 10.452,5.105 24.346,9.753 C 11.949,-10.884 8.207,4.061 0,0" /></g><g
           transform="translate(416.2124,323.4868)"
           id="g74"><path
             id="path76"
             style="fill:#fafafa;fill-opacity:1;fill-rule:nonzero;stroke:none"
             d="m 0,0 c 4.591,-4.977 7.735,-10.017 9.046,-15.136 0,0 16.167,5.334 11.082,15.706 C 15.042,10.942 0,0 0,0" /></g><g
           transform="translate(431.0545,288.707)"
           id="g78"><path
             id="path80"
             style="fill:#e1e1e1;fill-opacity:1;fill-rule:nonzero;stroke:none"
             d="m 0,0 c -6.586,-11.361 -16.572,-24.363 -23.879,-17.047 -7.306,7.316 5.782,10.093 11.333,23.651 C -10.075,12.639 4.592,7.922 0,0" /></g><g
           transform="translate(429.3512,281.7393)"
           id="g82"><path
             id="path84"
             style="fill:#fafafa;fill-opacity:1;fill-rule:nonzero;stroke:none"
             d="m 0,0 c -4.664,4.908 -9.486,8.378 -14.509,10.022 0,0 6.387,15.781 16.402,10.025 C 11.908,14.29 0,0 0,0" /></g></g></g><g
       id="g86"><g
         clip-path="url(#clipPath92)"
         id="g88"><g
           transform="translate(249.6804,343.1401)"
           id="g94"><path
             id="path96"
             style="fill:#007cff;fill-opacity:1;fill-rule:nonzero;stroke:none"
             d="m 0,0 c 49.142,-62.176 179.516,-23.563 171.674,-134.158 -7.513,-105.966 -146.459,-86.059 -213.615,-56.228 -77.861,34.587 -134.301,113.921 -100.254,197.633 13.149,32.33 38.308,62.433 76.202,64.132 C -5.45,74.093 -26.048,32.957 0,0" /></g><g
           id="g98"><g
             id="g100" /><g
             id="g112"><g
               style="opacity:0.89999402"
               id="g110"
               clip-path="url(#clipPath104)"><g
                 id="g108"
                 transform="translate(249.6804,343.1401)"><path
                   id="path106"
                   style="fill:#ffffff;fill-opacity:1;fill-rule:nonzero;stroke:none"
                   d="m 0,0 c 49.142,-62.176 179.516,-23.563 171.674,-134.158 -7.513,-105.966 -146.459,-86.059 -213.615,-56.228 -77.861,34.587 -134.301,113.921 -100.254,197.633 13.149,32.33 38.308,62.433 76.202,64.132 C -5.45,74.093 -26.048,32.957 0,0" /></g></g></g></g></g></g><g
       id="g114"><g
         clip-path="url(#clipPath120)"
         id="g116"><g
           transform="translate(325.3218,331.2085)"
           id="g122"><path
             id="path124"
             style="fill:#007cff;fill-opacity:1;fill-rule:nonzero;stroke:none"
             d="m 0,0 c 1.535,3.428 -0.914,37.198 -2.2,41.064 0.944,4.149 2.368,5.853 0.203,7.679 -2.165,1.826 -5.786,-3.808 -5.786,-3.808 0,0 -50.773,-0.69 -59.196,-2.7 -3.003,2.332 -5.343,3.17 -6.743,2.421 -1.321,-0.706 0.155,-8.022 2.942,-9.999 -1.208,-3.068 -1.439,-30.199 0.958,-36.761 -2.528,-2.038 -2.756,-4.872 -1.65,-5.979 1.697,-1.698 7.436,0.64 7.436,0.64 0,0 51.463,0.071 58.853,2.005 2.836,-2.246 8.341,-2.543 8.785,-0.455 C 3.984,-4.096 0,0 0,0" /></g><g
           id="g126"><g
             id="g128" /><g
             id="g140"><g
               style="opacity:0.69999701"
               id="g138"
               clip-path="url(#clipPath132)"><g
                 id="g136"
                 transform="translate(325.3218,331.2085)"><path
                   id="path134"
                   style="fill:#ffffff;fill-opacity:1;fill-rule:nonzero;stroke:none"
                   d="m 0,0 c 1.535,3.428 -0.914,37.198 -2.2,41.064 0.944,4.149 2.368,5.853 0.203,7.679 -2.165,1.826 -5.786,-3.808 -5.786,-3.808 0,0 -50.773,-0.69 -59.196,-2.7 -3.003,2.332 -5.343,3.17 -6.743,2.421 -1.321,-0.706 0.155,-8.022 2.942,-9.999 -1.208,-3.068 -1.439,-30.199 0.958,-36.761 -2.528,-2.038 -2.756,-4.872 -1.65,-5.979 1.697,-1.698 7.436,0.64 7.436,0.64 0,0 51.463,0.071 58.853,2.005 2.836,-2.246 8.341,-2.543 8.785,-0.455 C 3.984,-4.096 0,0 0,0" /></g></g></g></g><g
           id="g142"><g
             id="g144" /><g
             id="g156"><g
               style="opacity:0.19999701"
               id="g154"
               clip-path="url(#clipPath148)"><g
                 id="g152"
                 transform="translate(279.3832,353.0366)"><path
                   id="path150"
                   style="fill:#007cff;fill-opacity:1;fill-rule:nonzero;stroke:none"
                   d="M 0,0 C 0.153,1.391 0.379,2.588 1.18,3.826 -7.95,8.437 -14.05,7.548 -18.637,6.444 -9.521,5.493 -3.311,2.68 0,0" /></g></g></g></g><g
           id="g158"><g
             id="g160" /><g
             id="g172"><g
               style="opacity:0.19999701"
               id="g170"
               clip-path="url(#clipPath164)"><g
                 id="g168"
                 transform="translate(299.4331,348.4541)"><path
                   id="path166"
                   style="fill:#007cff;fill-opacity:1;fill-rule:nonzero;stroke:none"
                   d="M 0,0 C 0.07,1.078 0.038,2.011 -0.551,3.004 9.134,6.088 14.977,5.092 19.302,4.008 10.209,3.741 3.672,1.893 0,0" /></g></g></g></g><g
           id="g174"><g
             id="g176" /><g
             id="g188"><g
               style="opacity:0.19999701"
               id="g186"
               clip-path="url(#clipPath180)"><g
                 id="g184"
                 transform="translate(297.4312,341.1108)"><path
                   id="path182"
                   style="fill:#007cff;fill-opacity:1;fill-rule:nonzero;stroke:none"
                   d="M 0,0 C 0.485,0.704 0.842,1.35 0.845,2.263 8.67,0.426 12.231,-2.621 14.727,-5.111 8.448,-1.603 3.261,-0.205 0,0" /></g></g></g></g><g
           transform="translate(410.6963,185.5566)"
           id="g190"><path
             id="path192"
             style="fill:#007cff;fill-opacity:1;fill-rule:nonzero;stroke:none"
             d="m 0,0 c -4.596,15.121 -19.116,22.641 -18.268,32.48 0.848,9.84 -0.016,21.386 -15.117,29.416 -15.102,8.029 -11.082,31.016 -12.556,41.135 -1.474,10.118 -5.933,23.405 -22.266,19.15 -48.936,-12.747 -80.453,-86.1 -122.429,-102.863 l -2.557,-59.23 c 21.623,8.558 54.898,18.837 91.269,14.118 C -50.931,-32.412 4.596,-15.122 0,0" /></g><g
           id="g194"><g
             id="g196" /><g
             id="g208"><g
               style="opacity:0.69999701"
               id="g206"
               clip-path="url(#clipPath200)"><g
                 id="g204"
                 transform="translate(410.6963,185.5566)"><path
                   id="path202"
                   style="fill:#ffffff;fill-opacity:1;fill-rule:nonzero;stroke:none"
                   d="m 0,0 c -4.596,15.121 -19.116,22.641 -18.268,32.48 0.848,9.84 -0.016,21.386 -15.117,29.416 -15.102,8.029 -11.082,31.016 -12.556,41.135 -1.474,10.118 -5.933,23.405 -22.266,19.15 -48.936,-12.747 -80.453,-86.1 -122.429,-102.863 l -2.557,-59.23 c 21.623,8.558 54.898,18.837 91.269,14.118 C -50.931,-32.412 4.596,-15.122 0,0" /></g></g></g></g><g
           id="g210"><g
             id="g212" /><g
             id="g224"><g
               style="opacity:0.19999701"
               id="g222"
               clip-path="url(#clipPath216)"><g
                 id="g220"
                 transform="translate(371.2501,252.5684)"><path
                   id="path218"
                   style="fill:#007cff;fill-opacity:1;fill-rule:nonzero;stroke:none"
                   d="M 0,0 V 0.01 C -6,7.809 -5.902,19.788 -6.07,28.757 -12.234,14.728 -53.893,-21.077 -90.59,-37.125 -47.58,-30.282 -8.447,-13.103 0,0" /></g></g></g></g><g
           id="g226"><g
             id="g228" /><g
             id="g240"><g
               style="opacity:0.19999701"
               id="g238"
               clip-path="url(#clipPath232)"><g
                 id="g236"
                 transform="translate(392.3933,217.0972)"><path
                   id="path234"
                   style="fill:#007cff;fill-opacity:1;fill-rule:nonzero;stroke:none"
                   d="M 0,0 C -12.486,-8.107 -36.64,-22.263 -114.935,-31.941 -45.788,-33.259 2.388,-21.661 8.393,-14.862 4.035,-9.526 0.057,-5.039 0,0" /></g></g></g></g><g
           transform="translate(274.3191,362.7354)"
           id="g242"><path
             id="path244"
             style="fill:#007cff;fill-opacity:1;fill-rule:nonzero;stroke:none"
             d="m 0,0 c -3.802,0 -6.895,-3.093 -6.895,-6.895 0,-3.802 3.093,-6.895 6.895,-6.895 3.802,0 6.895,3.093 6.895,6.895 C 6.895,-3.093 3.802,0 0,0 m 0,-14.79 c -4.353,0 -7.895,3.541 -7.895,7.895 C -7.895,-2.542 -4.353,1 0,1 4.354,1 7.895,-2.542 7.895,-6.895 7.895,-11.249 4.354,-14.79 0,-14.79" /></g><g
           transform="translate(191.4791,128.6216)"
           id="g246"><path
             id="path248"
             style="fill:#ff8c7b;fill-opacity:1;fill-rule:nonzero;stroke:none"
             d="m 0,0 -7.127,2.474 3.832,17.162 7.127,-2.473 z" /></g><g
           transform="translate(193.7032,128.2959)"
           id="g250"><path
             id="path252"
             style="fill:#ff8c7b;fill-opacity:1;fill-rule:nonzero;stroke:none"
             d="m 0,0 c -0.04,2.344 -1.539,2.794 -0.877,6.359 0,0 -6.175,3.401 -7.542,0.616 -1.366,-2.785 -6.755,-5.78 -14.932,-6.826 -1.144,-0.146 -0.303,-3.421 2.368,-3.364 4.417,0.094 7.666,0.402 11.433,0.483 3.221,0.068 4.07,-0.208 6.632,-0.328 C -0.779,-3.159 0.04,-2.355 0,0" /></g><g
           transform="translate(266.9144,304.8721)"
           id="g254"><path
             id="path256"
             style="fill:#ff8c7b;fill-opacity:1;fill-rule:nonzero;stroke:none"
             d="m 0,0 c -5.012,-3.096 -10.09,-6.152 -15.174,-9.15 l -15.446,-9.149 c -1.964,-1.08 -4.182,-1.696 -6.281,-1.832 -2.105,-0.143 -4.075,0.112 -5.883,0.542 -3.611,0.9 -6.624,2.48 -9.383,4.209 -2.746,1.758 -5.223,3.729 -7.532,5.833 -1.154,1.053 -2.253,2.154 -3.328,3.271 -1.086,1.128 -2.089,2.241 -3.122,3.52 l 4.061,3.948 c 2.173,-1.7 4.529,-3.461 6.897,-4.978 2.364,-1.551 4.779,-2.972 7.21,-4.12 2.415,-1.155 4.889,-2.024 7.101,-2.337 1.099,-0.153 2.117,-0.154 2.97,-0.002 0.852,0.166 1.531,0.439 2.138,0.845 l 3.45,2.423 c 1.23,0.865 2.475,1.694 3.716,2.533 2.483,1.669 4.976,3.314 7.489,4.923 5.02,3.232 10.085,6.342 15.259,9.341 z" /></g><g
           transform="translate(271.9977,308.6304)"
           id="g258"><path
             id="path260"
             style="fill:#007cff;fill-opacity:1;fill-rule:nonzero;stroke:none"
             d="m 0,0 c -2.879,-6.613 -20.814,-16.155 -20.814,-16.155 l -8.378,15.244 c 0,0 8.426,7.541 17.215,11.09 C -3.094,13.767 3.16,7.257 0,0" /></g><g
           id="g262"><g
             id="g264" /><g
             id="g276"><g
               style="opacity:0.19999701"
               id="g274"
               clip-path="url(#clipPath268)"><g
                 id="g272"
                 transform="translate(264.2416,307.7935)"><path
                   id="path270"
                   style="fill:#000000;fill-opacity:1;fill-rule:nonzero;stroke:none"
                   d="m 0,0 c -4.73,-2.871 -10.497,-9.94 -11.258,-14.315 2.834,1.603 8.482,4.943 12.96,8.515 C 2.369,-1.827 2.345,1.42 0,0" /></g></g></g></g><g
           transform="translate(207.9103,303.4004)"
           id="g278"><path
             id="path280"
             style="fill:#ff8c7b;fill-opacity:1;fill-rule:nonzero;stroke:none"
             d="m 0,0 -5.607,6.053 -4.444,-8.551 c 0,0 3.328,-4.102 8.377,-1.936 z" /></g><g
           transform="translate(197.3362,311.1523)"
           id="g282"><path
             id="path284"
             style="fill:#ff8c7b;fill-opacity:1;fill-rule:nonzero;stroke:none"
             d="m 0,0 -1.934,-7.439 2.457,-2.811 4.444,8.551 z" /></g><g
           id="g286"><g
             id="g288" /><g
             id="g300"><g
               style="opacity:0.19999701"
               id="g298"
               clip-path="url(#clipPath292)"><g
                 id="g296"
                 transform="translate(188.1841,148.2524)"><path
                   id="path294"
                   style="fill:#000000;fill-opacity:1;fill-rule:nonzero;stroke:none"
                   d="M 0,0 -1.274,-5.702 6.067,-7.233 7.13,-2.474 Z" /></g></g></g></g><g
           transform="translate(243.9704,110.063)"
           id="g302"><path
             id="path304"
             style="fill:#ff8c7b;fill-opacity:1;fill-rule:nonzero;stroke:none"
             d="m 0,0 -7.541,0.224 -1.487,17.522 7.541,-0.224 z" /></g><g
           transform="translate(246.19,110.4185)"
           id="g306"><path
             id="path308"
             style="fill:#ff8c7b;fill-opacity:1;fill-rule:nonzero;stroke:none"
             d="m 0,0 c -0.741,2.225 -2.306,2.205 -2.742,5.805 0,0 -6.911,1.393 -7.38,-1.673 -0.469,-3.067 -4.713,-7.539 -12.201,-10.986 -1.048,-0.483 0.736,-3.356 3.267,-2.501 4.187,1.414 7.194,2.681 10.763,3.887 3.053,1.031 3.946,1.021 6.426,1.675 C 0.203,-3.247 0.744,-2.234 0,0" /></g><g
           id="g310"><g
             id="g312" /><g
             id="g324"><g
               style="opacity:0.19999701"
               id="g322"
               clip-path="url(#clipPath316)"><g
                 id="g320"
                 transform="translate(234.9441,127.8047)"><path
                   id="path318"
                   style="fill:#000000;fill-opacity:1;fill-rule:nonzero;stroke:none"
                   d="m 0,0 0.493,-5.822 7.463,0.739 -0.412,4.858 z" /></g></g></g></g><g
           transform="translate(263.556,319.6655)"
           id="g326"><path
             id="path328"
             style="fill:#007cff;fill-opacity:1;fill-rule:nonzero;stroke:none"
             d="m 0,0 c 0,0 -3.018,-17.614 -21.646,-60.586 11.486,-3.986 32.532,-11.289 38.121,-13.229 12.132,21.388 17.923,38.472 28.063,66.483 0,0 -9.306,3.968 -15.781,5.237 C 23.691,-1.102 16.329,0.143 11.785,0.39 5.793,0.717 0,0 0,0" /></g><g
           id="g330"><g
             id="g332" /><g
             id="g344"><g
               style="opacity:0.19999701"
               id="g342"
               clip-path="url(#clipPath336)"><g
                 id="g340"
                 transform="translate(298.1175,302.8267)"><path
                   id="path338"
                   style="fill:#000000;fill-opacity:1;fill-rule:nonzero;stroke:none"
                   d="m 0,0 c 0,0 -1.743,-8.457 0.38,-15.465 1.179,2.832 2.359,5.754 3.535,8.774 z" /></g></g></g></g><g
           transform="translate(274.6116,347.0132)"
           id="g346"><path
             id="path348"
             style="fill:#1a2e35;fill-opacity:1;fill-rule:nonzero;stroke:none"
             d="m 0,0 c -2.07,2.328 0.243,4.306 -2.985,7.381 2.645,0.425 4.972,-1.319 4.972,-1.319 0,0 -3.603,4.397 -3.691,7.704 1.843,-1.038 4.623,-1.286 6.288,-1.076 -1.606,0.958 -0.772,4.312 -3.959,5.014 2.121,1.992 8.803,0.774 10.011,-1.369 1.592,0.162 3.678,2.659 3.074,6.078 4.339,-1.478 8.701,-7.36 9.458,-11.186 1.128,3.174 0.522,7.878 0.522,7.878 0,0 8.712,-7.676 5.99,-14.197 2.83,-1.764 4.233,-3.814 3.867,-6.658 -3.737,0.82 -5.51,-0.816 -5.51,-0.816 2.512,-2.08 1.117,-4.633 2.472,-7.07 -2.294,-0.028 -4.538,1.949 -4.538,1.949 0,0 1.529,-4.436 0.705,-8.415 -2.469,1.453 -3.932,1.588 -5.508,1.48 -0.057,-1.749 1.28,-3.356 1.28,-3.356 0,0 -6.748,-0.383 -8.245,2.294 -1.497,2.678 -10.237,10.168 -14.043,11.141 -3.806,0.973 -4.371,4.515 -4.371,4.515 0,0 1.596,-0.741 4.211,0.028" /></g><g
           transform="translate(293.4298,336.9268)"
           id="g350"><path
             id="path352"
             style="fill:#ff8c7b;fill-opacity:1;fill-rule:nonzero;stroke:none"
             d="m 0,0 c -1.87,-5.304 -4.404,-15.153 -1.117,-19.356 0,0 -7.135,-9.018 -17.31,-10.682 -5.195,8.111 0.338,13.167 0.338,13.167 6.302,0.562 6.807,5.103 6.368,9.501 z" /></g><g
           id="g354"><g
             id="g356" /><g
             id="g368"><g
               style="opacity:0.19999701"
               id="g366"
               clip-path="url(#clipPath360)"><g
                 id="g364"
                 transform="translate(274.4103,304.5684)"><path
                   id="path362"
                   style="fill:#000000;fill-opacity:1;fill-rule:nonzero;stroke:none"
                   d="m 0,0 c -0.283,-0.42 -0.729,-0.614 -0.996,-0.434 -0.267,0.18 -0.254,0.666 0.029,1.086 0.283,0.42 0.729,0.614 0.996,0.434 C 0.296,0.906 0.283,0.419 0,0" /></g></g></g></g><g
           id="g370"><g
             id="g372" /><g
             id="g384"><g
               style="opacity:0.19999701"
               id="g382"
               clip-path="url(#clipPath376)"><g
                 id="g380"
                 transform="translate(272.641,301.3335)"><path
                   id="path378"
                   style="fill:#000000;fill-opacity:1;fill-rule:nonzero;stroke:none"
                   d="m 0,0 c -0.252,-0.439 -0.682,-0.666 -0.962,-0.505 -0.28,0.16 -0.302,0.646 -0.05,1.085 C -0.76,1.02 -0.33,1.246 -0.05,1.085 0.229,0.925 0.252,0.439 0,0" /></g></g></g></g><g
           id="g386"><g
             id="g388" /><g
             id="g400"><g
               style="opacity:0.19999701"
               id="g398"
               clip-path="url(#clipPath392)"><g
                 id="g396"
                 transform="translate(271.1259,297.8447)"><path
                   id="path394"
                   style="fill:#000000;fill-opacity:1;fill-rule:nonzero;stroke:none"
                   d="m 0,0 c -0.181,-0.473 -0.572,-0.762 -0.873,-0.647 -0.301,0.116 -0.398,0.592 -0.216,1.065 0.181,0.473 0.572,0.762 0.873,0.647 C 0.085,0.949 0.181,0.473 0,0" /></g></g></g></g><g
           id="g402"><g
             id="g404" /><g
             id="g416"><g
               style="opacity:0.19999701"
               id="g414"
               clip-path="url(#clipPath408)"><g
                 id="g412"
                 transform="translate(275.0025,306.8887)"><path
                   id="path410"
                   style="fill:#000000;fill-opacity:1;fill-rule:nonzero;stroke:none"
                   d="m 0,0 1.583,-1.805 c 0,0 -3.5,-7.084 -5,-10.334 1.987,3.019 3.305,6.07 5.972,10.145 C 1.805,-1.527 0,0 0,0" /></g></g></g></g><g
           id="g418"><g
             id="g420" /><g
             id="g432"><g
               style="opacity:0.19999701"
               id="g430"
               clip-path="url(#clipPath424)"><g
                 id="g428"
                 transform="translate(288.6508,333.9194)"><path
                   id="path426"
                   style="fill:#000000;fill-opacity:1;fill-rule:nonzero;stroke:none"
                   d="m 0,0 -6.937,-4.358 c 0.108,-1.041 0.156,-2.089 0.082,-3.089 2.376,-0.005 5.945,2.081 6.549,4.481 C -0.005,-1.77 0.115,-0.595 0,0" /></g></g></g></g><g
           transform="translate(297.3416,343.5859)"
           id="g434"><path
             id="path436"
             style="fill:#ff8c7b;fill-opacity:1;fill-rule:nonzero;stroke:none"
             d="m 0,0 c -2.634,-7.008 -3.819,-11.244 -8.554,-13.802 -7.122,-3.847 -14.934,2.134 -14.447,9.788 0.438,6.889 4.672,17.193 12.538,17.888 C -2.714,14.557 2.634,7.009 0,0" /></g><g
           transform="translate(297.1686,338.1289)"
           id="g438"><path
             id="path440"
             style="fill:#1a2e35;fill-opacity:1;fill-rule:nonzero;stroke:none"
             d="m 0,0 c -3.373,-0.747 -6.166,3.226 -6.166,3.226 0,0 3.611,1.049 4.388,1.79 -1.329,0.899 -3.708,2.883 -4.874,5.241 2.619,0.674 4.754,1.105 4.754,1.105 0,0 -2.557,2.349 -7.12,2.291 0.009,1.335 2.108,3.347 2.108,3.347 0,0 -4.432,-2.567 -10.616,-1.323 -6.185,1.244 2.985,6.197 8.51,5.763 C -3.49,21.006 4.303,17.682 3.829,12.477 5.248,9.627 2.497,2.18 0,0" /></g><g
           transform="translate(298.1482,334.7207)"
           id="g442"><path
             id="path444"
             style="fill:#ff8c7b;fill-opacity:1;fill-rule:nonzero;stroke:none"
             d="M 0,0 C -1.518,-1.331 -3.509,-1.836 -5.163,-1.701 -7.65,-1.497 -8.031,0.936 -6.618,2.832 -5.346,4.538 -2.519,6.488 -0.37,5.344 1.747,4.217 1.736,1.521 0,0" /></g><g
           transform="translate(241.9105,259.0796)"
           id="g446"><path
             id="path448"
             style="fill:#007cff;fill-opacity:1;fill-rule:nonzero;stroke:none"
             d="m 0,0 c 0,0 -41.159,-28.869 -47.927,-50.873 -7.039,-22.886 -11.888,-61.811 -11.888,-61.811 l 17.071,-2.744 c 0,0 5.322,34.101 13.564,56.116 8.986,24.001 47.758,31.944 54.238,50.616 C 13.27,-4.605 0,0 0,0" /></g><g
           id="g450"><g
             id="g452" /><g
             id="g464"><g
               style="opacity:0.19999701"
               id="g462"
               clip-path="url(#clipPath456)"><g
                 id="g460"
                 transform="translate(250.0381,238.5996)"><path
                   id="path458"
                   style="fill:#000000;fill-opacity:1;fill-rule:nonzero;stroke:none"
                   d="m 0,0 c -7.155,0.743 -19.291,-11.266 -22.54,-20.588 7.57,5.905 16.504,10.831 24.041,15.955 C 2.184,-2.032 1.924,-0.203 0,0" /></g></g></g></g><g
           transform="translate(255.4331,254.3867)"
           id="g466"><path
             id="path468"
             style="fill:#007cff;fill-opacity:1;fill-rule:nonzero;stroke:none"
             d="m 0,0 c 0,0 -27.938,-34.779 -30.579,-56.725 -2.893,-24.032 7.394,-70.925 7.394,-70.925 l 12.75,-1.461 c 0,0 -4.37,39.854 0.534,62.94 5.322,25.057 28.301,39.777 34.499,57.634 C 9.999,-3.47 0,0 0,0" /></g><g
           transform="translate(285.3035,344.0879)"
           id="g470"><path
             id="path472"
             style="fill:#1a2e35;fill-opacity:1;fill-rule:nonzero;stroke:none"
             d="m 0,0 c -0.108,0 -0.226,0.02 -0.353,0.059 -0.273,0.084 -0.474,0.219 -0.598,0.403 -0.156,0.232 -0.181,0.523 -0.075,0.866 0.04,0.132 0.179,0.208 0.312,0.165 0.132,-0.04 0.206,-0.18 0.165,-0.312 C -0.608,0.99 -0.603,0.842 -0.536,0.741 -0.478,0.655 -0.367,0.586 -0.206,0.537 -0.061,0.492 0.046,0.488 0.117,0.525 0.231,0.583 0.307,0.764 0.351,0.904 0.391,1.037 0.529,1.113 0.663,1.07 0.795,1.029 0.869,0.89 0.828,0.758 0.723,0.414 0.564,0.192 0.344,0.08 0.24,0.027 0.126,0 0,0" /></g><g
           transform="translate(278.7312,346.1084)"
           id="g474"><path
             id="path476"
             style="fill:#1a2e35;fill-opacity:1;fill-rule:nonzero;stroke:none"
             d="m 0,0 c -0.109,0 -0.227,0.02 -0.354,0.059 -0.618,0.19 -0.864,0.652 -0.674,1.269 0.04,0.132 0.18,0.208 0.312,0.165 0.132,-0.04 0.206,-0.18 0.165,-0.312 C -0.659,0.827 -0.563,0.646 -0.208,0.536 0.029,0.463 0.208,0.446 0.349,0.904 0.388,1.037 0.529,1.113 0.661,1.07 0.793,1.029 0.867,0.89 0.826,0.758 0.671,0.253 0.394,0 0,0" /></g><g
           transform="translate(281.3196,346.0078)"
           id="g478"><path
             id="path480"
             style="fill:#ff5551;fill-opacity:1;fill-rule:nonzero;stroke:none"
             d="m 0,0 c 0,0 -2.354,-2.949 -4.307,-4.121 0.734,-1.276 2.618,-1.375 2.618,-1.375 z" /></g><g
           transform="translate(282.1576,338.1392)"
           id="g482"><path
             id="path484"
             style="fill:#1a2e35;fill-opacity:1;fill-rule:nonzero;stroke:none"
             d="M 0,0 C -0.412,0.026 -0.855,0.101 -1.326,0.246 -1.42,0.274 -1.473,0.375 -1.444,0.469 -1.415,0.563 -1.316,0.616 -1.221,0.587 1.33,-0.199 3.072,1.219 3.089,1.234 3.165,1.297 3.278,1.288 3.341,1.211 3.404,1.136 3.394,1.023 3.318,0.959 3.255,0.907 1.988,-0.125 0,0" /></g><g
           transform="translate(288.6083,346.4155)"
           id="g486"><path
             id="path488"
             style="fill:#1a2e35;fill-opacity:1;fill-rule:nonzero;stroke:none"
             d="M 0,0 C -0.137,0.009 -0.263,0.097 -0.314,0.234 -0.859,1.732 -2.138,2.044 -2.151,2.047 -2.343,2.092 -2.463,2.284 -2.419,2.476 -2.374,2.668 -2.182,2.79 -1.99,2.744 -1.922,2.728 -0.319,2.336 0.358,0.479 0.426,0.293 0.33,0.088 0.144,0.021 0.097,0.004 0.048,-0.003 0,0" /></g><g
           transform="translate(277.2167,350.0669)"
           id="g490"><path
             id="path492"
             style="fill:#1a2e35;fill-opacity:1;fill-rule:nonzero;stroke:none"
             d="M 0,0 C -0.08,0.005 -0.158,0.037 -0.221,0.096 -0.365,0.23 -0.373,0.456 -0.239,0.601 1.109,2.046 2.737,1.782 2.806,1.769 3.001,1.735 3.131,1.55 3.097,1.355 3.063,1.162 2.875,1.035 2.685,1.065 2.622,1.078 1.355,1.262 0.284,0.113 0.208,0.032 0.103,-0.006 0,0" /></g><g
           transform="translate(309.304,307.4155)"
           id="g494"><path
             id="path496"
             style="fill:#ff8c7b;fill-opacity:1;fill-rule:nonzero;stroke:none"
             d="m 0,0 c 0.792,-1.324 1.457,-2.504 2.115,-3.776 0.661,-1.25 1.296,-2.509 1.919,-3.775 1.223,-2.543 2.364,-5.132 3.394,-7.782 1.052,-2.641 1.955,-5.37 2.756,-8.153 l 0.576,-2.105 0.488,-2.154 c 0.171,-0.709 0.29,-1.454 0.419,-2.189 l 0.191,-1.104 0.047,-0.275 0.065,-0.46 c 0.049,-0.353 0.062,-0.665 0.075,-0.985 0.027,-2.482 -0.534,-4.183 -1.096,-5.775 -0.583,-1.572 -1.26,-2.957 -1.967,-4.286 -1.431,-2.64 -3.031,-5.012 -4.693,-7.304 -3.347,-4.57 -6.981,-8.703 -10.958,-12.664 l -4.375,3.599 c 2.825,4.478 5.618,9.097 8.117,13.658 1.242,2.284 2.396,4.592 3.323,6.836 0.461,1.114 0.862,2.224 1.117,3.231 0.259,0.979 0.359,1.958 0.276,2.195 -0.011,0.017 -0.013,0.044 -0.023,0.026 -0.009,0.019 0.011,-0.06 -0.016,0.042 l -0.058,0.221 -0.231,0.885 c -0.155,0.59 -0.293,1.177 -0.492,1.771 l -0.549,1.778 -0.61,1.784 c -0.857,2.375 -1.797,4.75 -2.837,7.112 -1.048,2.355 -2.14,4.708 -3.295,7.036 -0.571,1.168 -1.154,2.33 -1.757,3.478 l -1.788,3.356 z" /></g><g
           transform="translate(307.2167,312.6987)"
           id="g498"><path
             id="path500"
             style="fill:#007cff;fill-opacity:1;fill-rule:nonzero;stroke:none"
             d="m 0,0 c 6.962,-1.888 13.492,-22.648 13.492,-22.648 l -15.298,-7.925 c 0,0 -5.579,8.453 -8.308,17.366 C -12.988,-3.821 -7.896,2.141 0,0" /></g><g
           transform="translate(299.8683,249.4053)"
           id="g502"><path
             id="path504"
             style="fill:#ff8c7b;fill-opacity:1;fill-rule:nonzero;stroke:none"
             d="m 0,0 -7.161,-2.716 6.864,-6.763 c 0,0 5.583,3.666 3.971,6.84 z" /></g><g
           transform="translate(288.0102,239.9912)"
           id="g506"><path
             id="path508"
             style="fill:#ff8c7b;fill-opacity:1;fill-rule:nonzero;stroke:none"
             d="m 0,0 5.926,-5.238 5.636,5.173 -6.865,6.763 z" /></g><g
           transform="translate(318.2967,395.6143)"
           id="g510"><path
             id="path512"
             style="fill:#1a2e35;fill-opacity:1;fill-rule:nonzero;stroke:none"
             d="M 0,0 H 9.185 V -2.099 L 3.289,-8.246 H 9.4 v -2.257 h -9.966 v 2.178 l 5.834,6.082 -5.268,0 z" /></g><g
           transform="translate(305.5904,385.7378)"
           id="g514"><path
             id="path516"
             style="fill:#1a2e35;fill-opacity:1;fill-rule:nonzero;stroke:none"
             d="M 0,0 H 6.692 V -1.529 L 2.396,-6.008 h 4.452 v -1.644 h -7.26 v 1.587 l 4.25,4.431 -3.838,0 z" /></g><g
           transform="translate(301.2017,372.519)"
           id="g518"><path
             id="path520"
             style="fill:#1a2e35;fill-opacity:1;fill-rule:nonzero;stroke:none"
             d="M 0,0 H 4.8 V -1.097 L 1.719,-4.31 h 3.193 v -1.179 h -5.208 v 1.138 l 3.049,3.179 -2.753,0 z" /></g><g
           transform="translate(220.0603,204.8745)"
           id="g522"><path
             id="path524"
             style="fill:#007cff;fill-opacity:1;fill-rule:nonzero;stroke:none"
             d="m 0,0 c -4.737,-1.892 -9.606,-3.063 -14.649,-3.345 -23.756,-1.329 -60.737,44.404 -56.95,9.051 1.956,-18.253 -4.86,-13.115 -2.424,-29.626 1.27,-8.607 2.51,-14.653 -3.715,-24.063 -3.591,-5.428 -10.87,-15.28 -0.503,-18.753 10.368,-3.474 40.572,-7.166 55.811,-0.896 4.37,1.798 11.179,4.961 19.873,8.402 z" /></g><g
           id="g526"><g
             id="g528" /><g
             id="g540"><g
               style="opacity:0.69999701"
               id="g538"
               clip-path="url(#clipPath532)"><g
                 id="g536"
                 transform="translate(220.0603,204.8745)"><path
                   id="path534"
                   style="fill:#ffffff;fill-opacity:1;fill-rule:nonzero;stroke:none"
                   d="m 0,0 c -4.737,-1.892 -9.606,-3.063 -14.649,-3.345 -23.756,-1.329 -60.737,44.404 -56.95,9.051 1.956,-18.253 -4.86,-13.115 -2.424,-29.626 1.27,-8.607 2.51,-14.653 -3.715,-24.063 -3.591,-5.428 -10.87,-15.28 -0.503,-18.753 10.368,-3.474 40.572,-7.166 55.811,-0.896 4.37,1.798 11.179,4.961 19.873,8.402 z" /></g></g></g></g><g
           id="g542"><g
             id="g544" /><g
             id="g556"><g
               style="opacity:0.19999701"
               id="g554"
               clip-path="url(#clipPath548)"><g
                 id="g552"
                 transform="translate(146.5834,177.2314)"><path
                   id="path550"
                   style="fill:#007cff;fill-opacity:1;fill-rule:nonzero;stroke:none"
                   d="m 0,0 c 0.637,-4.636 0.881,-8.703 -0.706,-13.372 33.377,-7.509 52.438,0.351 66.418,7.675 C 35.366,-10.048 12.926,-5.991 0,0" /></g></g></g></g></g></g><g
       id="g558"><g
         clip-path="url(#clipPath564)"
         id="g560"><g
           transform="translate(173.0991,264.3218)"
           id="g566"><path
             id="path568"
             style="fill:#007cff;fill-opacity:1;fill-rule:nonzero;stroke:none"
             d="m 0,0 h -73.249 c -6.6,0 -12,5.4 -12,12 v 113.353 c 0,6.6 5.4,12 12,12 H 0 c 6.6,0 12,-5.4 12,-12 V 12 C 12,5.4 6.6,0 0,0" /></g><g
           id="g570"><g
             id="g572" /><g
             id="g584"><g
               style="opacity:0.80000299"
               id="g582"
               clip-path="url(#clipPath576)"><g
                 id="g580"
                 transform="translate(173.0991,264.3218)"><path
                   id="path578"
                   style="fill:#ffffff;fill-opacity:1;fill-rule:nonzero;stroke:none"
                   d="m 0,0 h -73.249 c -6.6,0 -12,5.4 -12,12 v 113.353 c 0,6.6 5.4,12 12,12 H 0 c 6.6,0 12,-5.4 12,-12 V 12 C 12,5.4 6.6,0 0,0" /></g></g></g></g><g
           id="g586"><g
             id="g588" /><g
             id="g600"><g
               style="opacity:0.80000299"
               id="g598"
               clip-path="url(#clipPath592)"><g
                 id="g596"
                 transform="translate(99.8499,397.4248)"><path
                   id="path594"
                   style="fill:#ffffff;fill-opacity:1;fill-rule:nonzero;stroke:none"
                   d="m 0,0 c -4.274,0 -7.75,-3.477 -7.75,-7.75 v -113.353 c 0,-4.273 3.476,-7.75 7.75,-7.75 h 73.249 c 4.273,0 7.75,3.477 7.75,7.75 V -7.75 c 0,4.273 -3.477,7.75 -7.75,7.75 z M 73.249,-129.353 H 0 c -4.549,0 -8.25,3.701 -8.25,8.25 V -7.75 c 0,4.549 3.701,8.25 8.25,8.25 h 73.249 c 4.549,0 8.25,-3.701 8.25,-8.25 v -113.353 c 0,-4.549 -3.701,-8.25 -8.25,-8.25" /></g></g></g></g><g
           transform="translate(175.17,387.5796)"
           id="g602"><path
             id="path604"
             style="fill:#007cff;fill-opacity:1;fill-rule:nonzero;stroke:none"
             d="m 0,0 c 0,-2.301 -1.865,-4.167 -4.167,-4.167 -2.3,0 -4.166,1.866 -4.166,4.167 0,2.301 1.866,4.167 4.166,4.167 C -1.865,4.167 0,2.301 0,0" /></g><g
           transform="translate(209.363,355.3403)"
           id="g606"><path
             id="path608"
             style="fill:#007cff;fill-opacity:1;fill-rule:nonzero;stroke:none"
             d="m 0,0 h -28.017 c -5.978,0 -10.842,4.864 -10.842,10.843 v 21.396 h 1 V 10.843 C -37.859,5.416 -33.444,1 -28.017,1 H 0 Z" /></g><path
           id="path610"
           style="fill:#007cff;fill-opacity:1;fill-rule:nonzero;stroke:none"
           d="m 220.06,355.34 h -6.03 v 1 h 6.03 z" /><path
           id="path612"
           style="fill:#007cff;fill-opacity:1;fill-rule:nonzero;stroke:none"
           d="m 266.924,355.34 h -44.228 v 1 h 44.228 z" /><g
           transform="translate(128.6338,363.2412)"
           id="g614"><path
             id="path616"
             style="fill:#007cff;fill-opacity:1;fill-rule:nonzero;stroke:none"
             d="m 0,0 h 24.07 c 0,-13.204 -10.866,-24.07 -24.07,-24.07 -2.808,0 -5.594,0.491 -8.232,1.452 z" /></g><g
           id="g618"><g
             id="g620" /><g
             id="g632"><g
               style="opacity:0.39999402"
               id="g630"
               clip-path="url(#clipPath624)"><g
                 id="g628"
                 transform="translate(128.6338,363.2412)"><path
                   id="path626"
                   style="fill:#007cff;fill-opacity:1;fill-rule:nonzero;stroke:none"
                   d="M 0,0 -15.472,18.439 C -11.138,22.076 -5.658,24.07 0,24.07 13.204,24.07 24.07,13.205 24.07,0 Z" /></g></g></g></g><g
           transform="translate(128.6338,363.2412)"
           id="g634"><path
             id="path636"
             style="fill:#ffffff;fill-opacity:1;fill-rule:nonzero;stroke:none"
             d="M 0,0 -8.232,-22.618 C -17.719,-19.166 -24.07,-10.095 -24.07,0 c 0,7.111 3.151,13.868 8.598,18.439 z" /></g><g
           transform="translate(128.6338,304.5977)"
           id="g638"><path
             id="path640"
             style="fill:#007cff;fill-opacity:1;fill-rule:nonzero;stroke:none"
             d="m 0,0 -12.035,20.845 c 3.659,2.113 7.81,3.225 12.035,3.225 1.401,0 2.8,-0.122 4.18,-0.366 z" /></g><g
           id="g642"><g
             id="g644" /><g
             id="g656"><g
               style="opacity:0.39999402"
               id="g654"
               clip-path="url(#clipPath648)"><g
                 id="g652"
                 transform="translate(128.6338,304.5977)"><path
                   id="path650"
                   style="fill:#007cff;fill-opacity:1;fill-rule:nonzero;stroke:none"
                   d="m 0,0 -15.472,-18.439 c -5.447,4.571 -8.598,11.328 -8.598,18.439 0,8.588 4.597,16.551 12.035,20.845 z" /></g></g></g></g><g
           transform="translate(128.6338,304.5977)"
           id="g658"><path
             id="path660"
             style="fill:#ffffff;fill-opacity:1;fill-rule:nonzero;stroke:none"
             d="M 0,0 4.18,23.704 C 15.636,21.684 24.07,11.633 24.07,0 24.07,-13.205 13.204,-24.07 0,-24.07 c -5.658,0 -11.138,1.994 -15.472,5.631 z" /></g><path
           id="path662"
           style="fill:#007cff;fill-opacity:1;fill-rule:nonzero;stroke:none"
           d="m 165.03,301.875 h -2.445 v -21.223 h 2.445 z" /><path
           id="path664"
           style="fill:#ffffff;fill-opacity:1;fill-rule:nonzero;stroke:none"
           d="m 169.99,336.125 h -2.444 v -55.472 h 2.444 z" /><g
           id="g666"><g
             id="g668" /><g
             id="g678"><g
               style="opacity:0.39999402"
               id="g676"
               clip-path="url(#clipPath672)"><path
                 id="path674"
                 style="fill:#007cff;fill-opacity:1;fill-rule:nonzero;stroke:none"
                 d="m 174.951,317.125 h -2.444 v -36.473 h 2.444 z" /></g></g></g></g></g></g></svg>